<svg width="360" height="473" viewBox="0 0 360 473" fill="none" xmlns="http://www.w3.org/2000/svg">
<path d="M461.741 10.4564C515.082 63.7975 548.337 127.094 559.002 186.292C569.667 245.492 557.736 300.542 520.784 337.493C483.833 374.445 428.783 386.376 369.583 375.711C310.385 365.046 247.088 331.791 193.747 278.45C140.406 225.109 107.151 161.812 96.4861 102.614C85.8211 43.4145 97.7523 -11.6355 134.704 -48.5871C171.655 -85.5386 226.705 -97.4698 285.905 -86.8048C345.103 -76.1403 408.4 -42.8848 461.741 10.4564Z" stroke="white"/>
<path d="M493.741 -21.5436C547.082 31.7975 580.337 95.094 591.002 154.292C601.667 213.492 589.736 268.542 552.784 305.493C515.833 342.445 460.783 354.376 401.583 343.711C342.385 333.046 279.088 299.791 225.747 246.45C172.406 193.109 139.151 129.812 128.486 70.6144C117.821 11.4145 129.752 -43.6355 166.704 -80.5871C203.655 -117.539 258.705 -129.47 317.905 -118.805C377.103 -108.14 440.4 -74.8848 493.741 -21.5436Z" stroke="white"/>
<path d="M525.741 -53.5436C579.082 -0.202534 612.337 63.094 623.002 122.292C633.667 181.492 621.736 236.542 584.784 273.493C547.833 310.445 492.783 322.376 433.583 311.711C374.385 301.046 311.088 267.791 257.747 214.45C204.406 161.109 171.151 97.8122 160.486 38.6144C149.821 -20.5855 161.752 -75.6355 198.704 -112.587C235.655 -149.539 290.705 -161.47 349.905 -150.805C409.103 -140.14 472.4 -106.885 525.741 -53.5436Z" stroke="white"/>
</svg>
